<?xml version="1.0" encoding="UTF-8"?>
<!DOCTYPE svg PUBLIC "-//W3C//DTD SVG 1.1//EN" "http://www.w3.org/Graphics/SVG/1.1/DTD/svg11.dtd">
<svg xmlns="http://www.w3.org/2000/svg" version="1.1" width="700px" height="700px" style="shape-rendering:geometricPrecision; text-rendering:geometricPrecision; image-rendering:optimizeQuality; fill-rule:evenodd; clip-rule:evenodd" xmlns:xlink="http://www.w3.org/1999/xlink">
<g><path style="opacity:0.564" fill="#000000" d="M 131.5,33.5 C 139.678,33.6535 142.011,37.3201 138.5,44.5C 131.905,47.3064 128.405,45.3064 128,38.5C 129.412,36.9354 130.579,35.2687 131.5,33.5 Z"/></g>
<g><path style="opacity:0.662" fill="#000000" d="M 321.5,45.5 C 331.552,43.7114 334.885,47.5447 331.5,57C 321.448,61.7177 317.281,58.5511 319,47.5C 319.995,46.9341 320.828,46.2674 321.5,45.5 Z"/></g>
<g><path style="opacity:0.637" fill="#000000" d="M 528.5,65.5 C 538.322,65.4718 541.322,69.9718 537.5,79C 528.273,82.1563 524.106,78.9896 525,69.5C 526.72,68.6159 527.886,67.2825 528.5,65.5 Z"/></g>
<g><path style="opacity:0.708" fill="#000000" d="M 285.5,73.5 C 295.597,73.0526 299.597,77.7193 297.5,87.5C 294.331,92.1179 289.998,93.6179 284.5,92C 277.57,85.1759 277.904,79.0092 285.5,73.5 Z"/></g>
<g><path style="opacity:0.801" fill="#000000" d="M 552.5,74.5 C 559.699,72.987 565.533,74.987 570,80.5C 573.335,95.8323 567.168,101.999 551.5,99C 542.001,90.4738 542.335,82.3071 552.5,74.5 Z"/></g>
<g><path style="opacity:0.593" fill="#000000" d="M 393.5,77.5 C 402.159,75.6756 404.826,78.8422 401.5,87C 395.826,90.0707 392.16,88.5707 390.5,82.5C 390.771,80.3074 391.771,78.6407 393.5,77.5 Z"/></g>
<g><path style="opacity:0.782" fill="#000000" d="M 436.5,78.5 C 449.544,77.7208 454.378,83.7208 451,96.5C 450.022,98.4751 448.689,100.142 447,101.5C 434.204,105.093 428.038,100.426 428.5,87.5C 429.582,82.9481 432.249,79.9481 436.5,78.5 Z"/></g>
<g><path style="opacity:0.675" fill="#000000" d="M 360.5,87.5 C 371.124,86.9465 374.124,91.6132 369.5,101.5C 358.883,105.047 354.716,101.381 357,90.5C 357.985,89.1859 359.152,88.1859 360.5,87.5 Z"/></g>
<g><path style="opacity:0.793" fill="#000000" d="M 227.5,88.5 C 242.096,86.9295 247.596,93.2628 244,107.5C 239.051,113.502 232.884,115.002 225.5,112C 220.701,107.158 219.201,101.325 221,94.5C 223.063,92.2659 225.229,90.2659 227.5,88.5 Z"/></g>
<g><path style="opacity:0.749" fill="#000000" d="M 342.5,99.5 C 355.427,101.354 358.76,108.02 352.5,119.5C 345.523,123.918 339.523,122.918 334.5,116.5C 333.109,111.952 333.609,107.618 336,103.5C 338.301,102.24 340.468,100.907 342.5,99.5 Z"/></g>
<g><path style="opacity:0.74" fill="#000000" d="M 364.5,110.5 C 375.126,109.179 379.626,113.845 378,124.5C 372.309,131.933 366.309,132.266 360,125.5C 358.291,121.878 358.291,118.211 360,114.5C 360.907,112.391 362.407,111.058 364.5,110.5 Z"/></g>
<g><path style="opacity:0.809" fill="#000000" d="M 513.5,111.5 C 521.308,109.814 527.641,111.981 532.5,118C 536.35,127.447 534.016,134.781 525.5,140C 507.183,142.001 501.016,134.168 507,116.5C 508.78,114.206 510.947,112.539 513.5,111.5 Z"/></g>
<g><path style="opacity:0.668" fill="#000000" d="M 387.5,113.5 C 397.82,112.665 401.153,117.165 397.5,127C 393.208,130.35 389.041,130.184 385,126.5C 382.467,121.351 383.3,117.018 387.5,113.5 Z"/></g>
<g><path style="opacity:0.744" fill="#000000" d="M 453.5,116.5 C 461.947,114.794 466.614,118.127 467.5,126.5C 467.356,133.055 464.023,136.388 457.5,136.5C 449.05,134.953 446.217,129.953 449,121.5C 450.634,119.938 452.134,118.271 453.5,116.5 Z"/></g>
<g><path style="opacity:0.729" fill="#000000" d="M 194.5,117.5 C 198.301,118.474 201.801,120.141 205,122.5C 207.5,134 203,138.5 191.5,136C 187.111,132.275 185.944,127.775 188,122.5C 190.027,120.565 192.194,118.898 194.5,117.5 Z"/></g>
<g><path style="opacity:0.799" fill="#000000" d="M 478.5,117.5 C 495.133,115.954 500.633,122.954 495,138.5C 493.745,139.211 492.579,140.044 491.5,141C 477.895,144.315 471.728,139.148 473,125.5C 474.302,122.382 476.135,119.716 478.5,117.5 Z"/></g>
<g><path style="opacity:0.805" fill="#000000" d="M 219.5,120.5 C 223.514,120.334 227.514,120.501 231.5,121C 234.149,121.794 236.316,123.294 238,125.5C 243.251,141.873 237.418,149.373 220.5,148C 212.39,143.936 209.557,137.436 212,128.5C 213.858,125.022 216.358,122.355 219.5,120.5 Z"/></g>
<g><path style="opacity:0.786" fill="#000000" d="M 88.5,133.5 C 102.448,132.701 107.282,139.034 103,152.5C 94.5414,159.619 87.208,158.619 81,149.5C 79.3577,142.037 81.8577,136.704 88.5,133.5 Z"/></g>
<g><path style="opacity:0.854" fill="#000000" d="M 397.5,134.5 C 407.42,132.585 415.253,135.585 421,143.5C 425.555,155.846 422.221,165.179 411,171.5C 391.427,174.427 382.927,166.093 385.5,146.5C 387.902,140.765 391.902,136.765 397.5,134.5 Z"/></g>
<g><path style="opacity:0.816" fill="#000000" d="M 354.5,135.5 C 370.841,134.233 377.341,141.567 374,157.5C 367.885,164.742 360.385,166.408 351.5,162.5C 345.24,156.562 343.906,149.562 347.5,141.5C 349.856,139.362 352.189,137.362 354.5,135.5 Z"/></g>
<g><path style="opacity:0.794" fill="#000000" d="M 318.5,139.5 C 331.747,136.923 337.914,142.256 337,155.5C 333.32,163.647 327.153,166.147 318.5,163C 313.312,159.105 311.478,153.939 313,147.5C 314.243,144.424 316.077,141.757 318.5,139.5 Z"/></g>
<g><path style="opacity:0.889" fill="#000000" d="M 449.5,141.5 C 475.75,140.969 486.25,153.636 481,179.5C 468.662,196.954 453.829,199.12 436.5,186C 428.5,174 428.5,162 436.5,150C 440.557,146.514 444.89,143.681 449.5,141.5 Z"/></g>
<g><path style="opacity:0.8" fill="#000000" d="M 195.5,147.5 C 210.521,147.187 215.521,154.187 210.5,168.5C 204.919,173.825 198.585,174.825 191.5,171.5C 186.946,167.093 185.446,161.76 187,155.5C 188.445,151.218 191.278,148.551 195.5,147.5 Z"/></g>
<g><path style="opacity:0.807" fill="#000000" d="M 499.5,147.5 C 514.533,147.217 519.533,154.217 514.5,168.5C 506.673,175.417 499.173,175.084 492,167.5C 489.522,161.152 490.355,155.319 494.5,150C 496.315,149.243 497.981,148.41 499.5,147.5 Z"/></g>
<g><path style="opacity:0.844" fill="#000000" d="M 235.5,152.5 C 249.785,148.984 257.785,154.317 259.5,168.5C 257.894,182.256 250.228,187.756 236.5,185C 226.277,179.677 223.111,171.51 227,160.5C 229.074,156.923 231.907,154.256 235.5,152.5 Z"/></g>
<g><path style="opacity:0.655" fill="#000000" d="M 525.5,169.5 C 534.836,168.498 538.503,172.498 536.5,181.5C 523.915,185.912 520.248,181.912 525.5,169.5 Z"/></g>
<g><path style="opacity:0.658" fill="#000000" d="M 181.5,178.5 C 192,176.838 195.334,181.005 191.5,191C 181.961,194.66 177.794,191.493 179,181.5C 180.417,180.922 181.25,179.922 181.5,178.5 Z"/></g>
<g><path style="opacity:0.786" fill="#000000" d="M 211.5,180.5 C 224.512,179.494 230.012,185.494 228,198.5C 223.109,205.598 216.609,207.431 208.5,204C 200.35,195.03 201.35,187.197 211.5,180.5 Z"/></g>
<g><path style="opacity:0.881" fill="#000000" d="M 500.5,186.5 C 522.931,185.037 532.264,195.37 528.5,217.5C 521.435,230.424 510.768,234.257 496.5,229C 488.782,224.424 485.116,217.59 485.5,208.5C 485.466,197.563 490.466,190.23 500.5,186.5 Z"/></g>
<g><path style="opacity:0.981" fill="#000000" d="M 342.5,187.5 C 414.072,187.169 466.572,218.169 500,280.5C 526.446,344.192 518.779,403.192 477,457.5C 426.182,511.094 365.016,526.594 293.5,504C 242.203,482.517 208.87,444.851 193.5,391C 179.938,325.2 197.938,269.867 247.5,225C 266.66,209.816 288.16,198.983 312,192.5C 322.365,191.046 332.532,189.38 342.5,187.5 Z"/></g>
<g><path style="opacity:0.712" fill="#000000" d="M 190.5,202.5 C 201.207,201.534 205.541,206.201 203.5,216.5C 200.512,222.143 195.846,223.977 189.5,222C 181.447,215.089 181.781,208.589 190.5,202.5 Z"/></g>
<g><path style="opacity:0.742" fill="#000000" d="M 594.5,210.5 C 597.85,210.335 601.183,210.502 604.5,211C 610.313,216.026 610.979,221.693 606.5,228C 600.986,230.365 595.819,229.865 591,226.5C 588.278,220.223 589.445,214.889 594.5,210.5 Z"/></g>
<g><path style="opacity:0.684" fill="#000000" d="M 137.5,213.5 C 149.698,211.017 153.364,215.35 148.5,226.5C 141.002,230.291 136.668,228.125 135.5,220C 135.338,217.498 136.005,215.331 137.5,213.5 Z"/></g>
<g><path style="opacity:0.693" fill="#000000" d="M 32.5,219.5 C 36.1064,219.211 39.6064,219.544 43,220.5C 46.6019,225.47 46.1019,229.97 41.5,234C 34.5429,236.372 30.8763,234.038 30.5,227C 30.4101,224.256 31.0768,221.756 32.5,219.5 Z"/></g>
<g><path style="opacity:0.854" fill="#000000" d="M 166.5,222.5 C 182.545,222.047 190.379,229.713 190,245.5C 185.516,258.174 176.682,262.841 163.5,259.5C 157.782,257.282 153.949,253.282 152,247.5C 150.699,241.042 151.699,235.042 155,229.5C 157.167,228.667 158.667,227.167 159.5,225C 162.004,224.302 164.337,223.469 166.5,222.5 Z"/></g>
<g><path style="opacity:0.729" fill="#000000" d="M 98.5,232.5 C 102.182,232.335 105.848,232.501 109.5,233C 110.416,233.374 111.25,233.874 112,234.5C 114.587,248.037 109.587,252.037 97,246.5C 94.7117,241.479 95.2117,236.812 98.5,232.5 Z"/></g>
<g><path style="opacity:0.718" fill="#000000" d="M 519.5,233.5 C 529.49,232.99 533.657,237.656 532,247.5C 526.631,253.698 520.964,254.032 515,248.5C 514.333,244.833 514.333,241.167 515,237.5C 516.397,235.93 517.897,234.596 519.5,233.5 Z"/></g>
<g><path style="opacity:0.816" fill="#000000" d="M 129.5,236.5 C 144.747,237.975 149.581,245.975 144,260.5C 135.167,268.75 126.667,268.417 118.5,259.5C 113.726,247.415 117.393,239.748 129.5,236.5 Z"/></g>
<g><path style="opacity:0.825" fill="#000000" d="M 556.5,236.5 C 571.82,233.988 578.32,240.321 576,255.5C 571.841,262.67 565.674,265.17 557.5,263C 553.501,262.332 550.668,260.165 549,256.5C 546.297,247.526 548.797,240.859 556.5,236.5 Z"/></g>
<g><path style="opacity:0.703" fill="#000000" d="M 590.5,256.5 C 600.557,256.052 604.723,260.718 603,270.5C 599.702,275.22 595.202,276.72 589.5,275C 582.621,268.35 582.955,262.183 590.5,256.5 Z"/></g>
<g><path style="opacity:0.777" fill="#000000" d="M 533.5,257.5 C 548.736,257.955 553.236,265.289 547,279.5C 537.73,286.013 530.396,284.346 525,274.5C 523.72,266.652 526.553,260.986 533.5,257.5 Z"/></g>
<g><path style="opacity:0.894" fill="#000000" d="M 138.5,270.5 C 152.105,268.182 162.272,272.848 169,284.5C 174.734,301.886 169.568,314.386 153.5,322C 147.056,322.915 140.723,322.581 134.5,321C 118.23,311.21 114.563,297.71 123.5,280.5C 127.72,275.897 132.72,272.564 138.5,270.5 Z"/></g>
<g><path style="opacity:0.665" fill="#000000" d="M 556.5,272.5 C 566.571,272.538 569.238,277.038 564.5,286C 555.031,289.183 551.197,286.016 553,276.5C 554.388,275.264 555.554,273.931 556.5,272.5 Z"/></g>
<g><path style="opacity:0.77" fill="#000000" d="M 542.5,289.5 C 546.182,289.335 549.848,289.501 553.5,290C 555.99,290.495 557.49,291.995 558,294.5C 561.103,305.857 556.936,311.357 545.5,311C 538.372,308.242 535.872,303.076 538,295.5C 538.979,293.032 540.479,291.032 542.5,289.5 Z"/></g>
<g><path style="opacity:0.813" fill="#000000" d="M 95.5,295.5 C 103.879,293.954 110.379,296.62 115,303.5C 117.74,312.056 115.24,318.556 107.5,323C 100.052,324.954 93.8853,323.121 89,317.5C 85.3978,308.308 87.5644,300.974 95.5,295.5 Z"/></g>
<g><path style="opacity:0.826" fill="#000000" d="M 548.5,317.5 C 556,315.939 562.166,317.939 567,323.5C 571.663,340.157 565.497,347.657 548.5,346C 538.708,339.73 536.875,331.564 543,321.5C 544.812,320.023 546.645,318.69 548.5,317.5 Z"/></g>
<g><path style="opacity:0.65" fill="#000000" d="M 120.5,323.5 C 128.179,324.018 131.012,328.018 129,335.5C 124.945,339.721 120.779,340.054 116.5,336.5C 114.222,330.877 115.555,326.544 120.5,323.5 Z"/></g>
<g><path style="opacity:0.791" fill="#000000" d="M 143.5,332.5 C 149.403,331.488 154.57,332.821 159,336.5C 159.716,339.72 160.883,342.72 162.5,345.5C 160.883,348.28 159.716,351.28 159,354.5C 150.248,361.56 142.582,360.56 136,351.5C 133.576,342.895 136.076,336.562 143.5,332.5 Z"/></g>
<g><path style="opacity:0.658" fill="#000000" d="M 621.5,342.5 C 631.361,341.575 634.694,345.742 631.5,355C 618.2,358.512 614.867,354.346 621.5,342.5 Z"/></g>
<g><path style="opacity:0.838" fill="#000000" d="M 108.5,346.5 C 126.081,345.377 133.247,353.377 130,370.5C 123.425,380.356 114.591,382.856 103.5,378C 97.3781,371.216 95.8781,363.382 99,354.5C 101.747,351.246 104.914,348.58 108.5,346.5 Z"/></g>
<g><path style="opacity:0.671" fill="#000000" d="M 545.5,358.5 C 551.869,357.513 555.536,360.18 556.5,366.5C 554.714,373.543 550.381,375.71 543.5,373C 539.01,367.262 539.677,362.428 545.5,358.5 Z"/></g>
<g><path style="opacity:0.817" fill="#000000" d="M 151.5,364.5 C 160.876,365.376 166.21,370.542 167.5,380C 166.897,389.437 161.897,394.271 152.5,394.5C 142.822,394.124 137.822,389.124 137.5,379.5C 138.134,370.555 142.801,365.555 151.5,364.5 Z"/></g>
<g><path style="opacity:0.587" fill="#000000" d="M 574.5,368.5 C 582.682,366.48 585.848,369.48 584,377.5C 578.216,381.139 574.383,379.806 572.5,373.5C 572.986,371.696 573.653,370.029 574.5,368.5 Z"/></g>
<g><path style="opacity:0.767" fill="#000000" d="M 69.5,375.5 C 83.037,373.872 89.037,379.705 87.5,393C 79.5726,403.945 71.5726,404.112 63.5,393.5C 62.343,390.216 62.1764,386.882 63,383.5C 64.501,380.091 66.6677,377.424 69.5,375.5 Z"/></g>
<g><path style="opacity:0.722" fill="#000000" d="M 122.5,384.5 C 130.837,384.339 135.003,388.339 135,396.5C 132.792,403.11 128.292,405.276 121.5,403C 120.234,402.691 119.067,402.191 118,401.5C 116.566,397.594 116.233,393.594 117,389.5C 119.264,388.149 121.098,386.483 122.5,384.5 Z"/></g>
<g><path style="opacity:0.869" fill="#000000" d="M 551.5,384.5 C 565.257,382.885 574.591,388.385 579.5,401C 581.848,414.298 576.848,423.631 564.5,429C 547.332,431.649 537.332,424.482 534.5,407.5C 535.393,395.984 541.06,388.317 551.5,384.5 Z"/></g>
<g><path style="opacity:0.587" fill="#000000" d="M 97.5,391.5 C 100.572,391.183 103.572,391.516 106.5,392.5C 109.042,400.122 106.375,403.289 98.5,402C 94.9351,398.784 94.6017,395.284 97.5,391.5 Z"/></g>
<g><path style="opacity:0.567" fill="#000000" d="M 660.5,393.5 C 666.867,393.872 669.034,397.206 667,403.5C 663.798,407.386 660.465,407.386 657,403.5C 655.581,399.082 656.748,395.749 660.5,393.5 Z"/></g>
<g><path style="opacity:0.666" fill="#000000" d="M 583.5,417.5 C 592.433,417.316 595.433,421.483 592.5,430C 588.152,432.161 583.985,431.995 580,429.5C 578.593,424.599 579.76,420.599 583.5,417.5 Z"/></g>
<g><path style="opacity:0.754" fill="#000000" d="M 140.5,434.5 C 152.828,434.515 157.162,440.515 153.5,452.5C 143.485,460.106 136.485,457.94 132.5,446C 133.545,440.827 136.212,436.993 140.5,434.5 Z"/></g>
<g><path style="opacity:0.827" fill="#000000" d="M 527.5,436.5 C 535.524,436.335 542.024,439.335 547,445.5C 551.557,460.087 546.391,468.754 531.5,471.5C 515.872,468.586 510.872,459.586 516.5,444.5C 518.361,443.472 519.695,441.972 520.5,440C 523.174,439.33 525.507,438.163 527.5,436.5 Z"/></g>
<g><path style="opacity:0.783" fill="#000000" d="M 565.5,437.5 C 568.865,438.14 572.198,438.974 575.5,440C 579.187,444.608 580.187,449.775 578.5,455.5C 577.371,458.463 575.371,460.629 572.5,462C 563.617,464.718 557.451,461.885 554,453.5C 553.101,448.198 554.601,443.698 558.5,440C 560.927,439.098 563.26,438.264 565.5,437.5 Z"/></g>
<g><path style="opacity:0.824" fill="#000000" d="M 177.5,440.5 C 192.069,443.3 196.402,451.633 190.5,465.5C 182.296,473.451 174.13,473.451 166,465.5C 160.386,452.432 164.219,444.099 177.5,440.5 Z"/></g>
<g><path style="opacity:0.753" fill="#000000" d="M 590.5,440.5 C 604.422,439.173 608.755,445.006 603.5,458C 590.302,462.63 584.969,458.13 587.5,444.5C 589.288,443.717 590.288,442.384 590.5,440.5 Z"/></g>
<g><path style="opacity:0.727" fill="#000000" d="M 580.5,464.5 C 593.368,464.87 596.701,470.703 590.5,482C 578.017,485.832 573.184,481.332 576,468.5C 577.667,467.267 579.167,465.933 580.5,464.5 Z"/></g>
<g><path style="opacity:0.793" fill="#000000" d="M 552.5,466.5 C 562.817,464.983 568.817,469.316 570.5,479.5C 567.798,491.868 560.465,495.534 548.5,490.5C 540.869,480.844 542.203,472.844 552.5,466.5 Z"/></g>
<g><path style="opacity:0.87" fill="#000000" d="M 199.5,471.5 C 218.056,472.9 225.889,482.9 223,501.5C 219.122,511.353 211.789,516.687 201,517.5C 182.977,514.129 175.977,503.462 180,485.5C 184.126,477.324 190.626,472.657 199.5,471.5 Z"/></g>
<g><path style="opacity:0.713" fill="#000000" d="M 162.5,473.5 C 170.295,473.015 174.961,476.515 176.5,484C 173.93,493.27 168.263,495.937 159.5,492C 153.964,484.722 154.964,478.555 162.5,473.5 Z"/></g>
<g><path style="opacity:0.686" fill="#000000" d="M 625.5,485.5 C 636.994,483.993 640.328,488.493 635.5,499C 625.32,502.66 621.154,499.16 623,488.5C 623.698,487.309 624.531,486.309 625.5,485.5 Z"/></g>
<g><path style="opacity:0.66" fill="#000000" d="M 579.5,489.5 C 589.491,487.654 592.824,491.488 589.5,501C 585.197,504.422 581.03,504.256 577,500.5C 576.333,497.5 576.333,494.5 577,491.5C 577.995,490.934 578.828,490.267 579.5,489.5 Z"/></g>
<g><path style="opacity:0.658" fill="#000000" d="M 164.5,499.5 C 167.518,499.335 170.518,499.502 173.5,500C 178.815,504.608 178.815,509.275 173.5,514C 170.5,514.667 167.5,514.667 164.5,514C 163.152,511.658 161.819,509.325 160.5,507C 161.702,504.373 163.035,501.873 164.5,499.5 Z"/></g>
<g><path style="opacity:0.896" fill="#000000" d="M 472.5,500.5 C 486.647,497.709 497.481,502.376 505,514.5C 510.334,530.516 505.834,542.683 491.5,551C 474.692,556.33 462.692,551.164 455.5,535.5C 452.088,523.292 455.088,513.125 464.5,505C 467.576,504.06 470.243,502.56 472.5,500.5 Z"/></g>
<g><path style="opacity:0.842" fill="#000000" d="M 241.5,509.5 C 257.758,512.33 262.925,521.664 257,537.5C 250.216,543.622 242.382,545.122 233.5,542C 224.249,533.922 223.082,524.755 230,514.5C 233.387,511.551 237.22,509.884 241.5,509.5 Z"/></g>
<g><path style="opacity:0.764" fill="#000000" d="M 558.5,513.5 C 568.135,511.434 573.468,515.101 574.5,524.5C 574.308,527.649 573.308,530.482 571.5,533C 558.133,537.942 551.966,533.442 553,519.5C 554.626,517.195 556.46,515.195 558.5,513.5 Z"/></g>
<g><path style="opacity:0.701" fill="#000000" d="M 106.5,518.5 C 116.487,518.109 119.987,522.775 117,532.5C 108.789,538.998 102.956,537.331 99.5,527.5C 100.68,523.411 103.013,520.411 106.5,518.5 Z"/></g>
<g><path style="opacity:0.571" fill="#000000" d="M 212.5,520.5 C 218.71,522.983 219.876,526.983 216,532.5C 207.97,534.475 205.137,531.475 207.5,523.5C 209.544,522.935 211.21,521.935 212.5,520.5 Z"/></g>
<g><path style="opacity:0.852" fill="#000000" d="M 424.5,525.5 C 442.909,527.532 449.409,537.532 444,555.5C 434.247,566.906 423.581,567.906 412,558.5C 403.517,542.427 407.684,531.427 424.5,525.5 Z"/></g>
<g><path style="opacity:0.891" fill="#000000" d="M 286.5,531.5 C 305.473,528.348 316.973,536.014 321,554.5C 321.412,565.276 317.245,573.776 308.5,580C 293.924,586.945 281.757,584.112 272,571.5C 264.266,556.493 267.099,543.993 280.5,534C 282.611,533.155 284.611,532.322 286.5,531.5 Z"/></g>
<g><path style="opacity:0.67" fill="#000000" d="M 172.5,537.5 C 179.589,535.503 183.589,538.003 184.5,545C 183.579,552.156 179.579,554.49 172.5,552C 167.232,547.171 167.232,542.337 172.5,537.5 Z"/></g>
<g><path style="opacity:0.812" fill="#000000" d="M 377.5,538.5 C 393.741,537.239 400.241,544.573 397,560.5C 392.116,567.005 385.616,569.172 377.5,567C 372.929,565.427 370.096,562.26 369,557.5C 367.536,549 370.369,542.666 377.5,538.5 Z"/></g>
<g><path style="opacity:0.643" fill="#000000" d="M 214.5,541.5 C 217.881,541.46 221.214,541.793 224.5,542.5C 227.543,551.947 224.21,556.114 214.5,555C 209.234,550.455 209.234,545.955 214.5,541.5 Z"/></g>
<g><path style="opacity:0.765" fill="#000000" d="M 337.5,543.5 C 350.976,542.308 356.309,548.308 353.5,561.5C 351.378,566.112 347.712,568.112 342.5,567.5C 334.33,567.663 329.996,563.663 329.5,555.5C 330.337,553.162 331.17,550.828 332,548.5C 334.191,547.167 336.024,545.5 337.5,543.5 Z"/></g>
<g><path style="opacity:0.784" fill="#000000" d="M 233.5,555.5 C 245.767,553.268 250.934,558.268 249,570.5C 245.769,576.112 240.936,577.945 234.5,576C 232.061,575.226 230.227,573.726 229,571.5C 228.333,567.833 228.333,564.167 229,560.5C 230.025,558.313 231.525,556.646 233.5,555.5 Z"/></g>
<g><path style="opacity:0.806" fill="#000000" d="M 459.5,555.5 C 473.135,556.138 478.468,563.138 475.5,576.5C 470.778,584.942 463.778,587.442 454.5,584C 445.713,577.74 444.213,569.906 450,560.5C 452.64,557.599 455.807,555.932 459.5,555.5 Z"/></g>
<g><path style="opacity:0.812" fill="#000000" d="M 357.5,570.5 C 376.324,569.193 382.157,577.193 375,594.5C 367.138,600.016 359.471,599.683 352,593.5C 350,587.5 350,581.5 352,575.5C 353.847,573.754 355.681,572.088 357.5,570.5 Z"/></g>
<g><path style="opacity:0.737" fill="#000000" d="M 432.5,570.5 C 437.942,570.102 441.609,572.436 443.5,577.5C 444.777,588.033 440.11,592.2 429.5,590C 427.333,589.167 425.833,587.667 425,585.5C 422.837,577.822 425.337,572.822 432.5,570.5 Z"/></g>
<g><path style="opacity:0.762" fill="#000000" d="M 328.5,571.5 C 339.168,571 343.668,576 342,586.5C 338.979,593.556 333.812,595.723 326.5,593C 324.333,592.167 322.833,590.667 322,588.5C 321.333,584.833 321.333,581.167 322,577.5C 323.494,574.686 325.66,572.686 328.5,571.5 Z"/></g>
<g><path style="opacity:0.552" fill="#000000" d="M 388.5,571.5 C 397.818,571.655 399.818,575.488 394.5,583C 387.333,584.5 384.5,581.667 386,574.5C 387.045,573.627 387.878,572.627 388.5,571.5 Z"/></g>
<g><path style="opacity:0.807" fill="#000000" d="M 260.5,580.5 C 274.689,580.015 280.689,586.682 278.5,600.5C 277.502,602.49 276.502,604.49 275.5,606.5C 271.979,608.533 268.312,610.2 264.5,611.5C 252.325,608.997 247.658,601.663 250.5,589.5C 252.69,585.096 256.024,582.096 260.5,580.5 Z"/></g>
<g><path style="opacity:0.722" fill="#000000" d="M 229.5,581.5 C 241.706,581.477 245.706,587.144 241.5,598.5C 238.765,599.95 235.932,601.283 233,602.5C 224.035,599.976 221.368,594.31 225,585.5C 226.859,584.421 228.359,583.088 229.5,581.5 Z"/></g>
<g><path style="opacity:0.846" fill="#000000" d="M 294.5,590.5 C 311.72,588.555 319.387,596.055 317.5,613C 312.957,623.059 305.29,626.392 294.5,623C 287.553,620.294 284.22,615.127 284.5,607.5C 284.607,604.433 285.107,601.433 286,598.5C 288.665,595.46 291.498,592.793 294.5,590.5 Z"/></g>
<g><path style="opacity:0.64" fill="#000000" d="M 331.5,602.5 C 337.238,601.898 340.572,604.398 341.5,610C 340.138,616.038 336.471,618.371 330.5,617C 326.788,614.442 325.622,610.942 327,606.5C 327.907,604.391 329.407,603.058 331.5,602.5 Z"/></g>
<g><path style="opacity:0.68" fill="#000000" d="M 460.5,608.5 C 470.659,607.158 474.826,611.491 473,621.5C 470.103,626.155 465.937,627.655 460.5,626C 453.901,620.123 453.901,614.289 460.5,608.5 Z"/></g>
<g><path style="opacity:0.66" fill="#000000" d="M 477.5,616.5 C 488.548,615.244 491.548,619.577 486.5,629.5C 477.786,631.725 473.953,628.392 475,619.5C 476.045,618.627 476.878,617.627 477.5,616.5 Z"/></g>
<g><path style="opacity:0.711" fill="#000000" d="M 317.5,621.5 C 327.203,621.211 331.036,625.877 329,635.5C 326.103,640.155 321.937,641.655 316.5,640C 308.254,633.276 308.588,627.109 317.5,621.5 Z"/></g>
<g><path style="opacity:0.577" fill="#000000" d="M 125.5,639.5 C 133.762,638.425 136.428,641.758 133.5,649.5C 125.158,652.889 121.658,650.223 123,641.5C 123.995,640.934 124.828,640.267 125.5,639.5 Z"/></g>
<g><path style="opacity:0.784" fill="#000000" d="M 260.5,641.5 C 272.041,641.203 277.041,646.703 275.5,658C 272.018,664.954 266.351,667.287 258.5,665C 253.995,662.988 251.662,659.488 251.5,654.5C 252.269,651.49 253.103,648.49 254,645.5C 256.323,644.281 258.49,642.948 260.5,641.5 Z"/></g>
<g><path style="opacity:0.581" fill="#000000" d="M 476.5,644.5 C 484.682,642.48 487.848,645.48 486,653.5C 480.216,657.139 476.383,655.806 474.5,649.5C 474.437,647.486 475.103,645.819 476.5,644.5 Z"/></g>
</svg>
